# xmcd
#
# Track frame offsets:
#	150
#	15123
#	35317
#	51318
#	60572
#	64623
#	80740
#	106449
#	118366
#	130726
#	140362
#	152338
#	165327
#	179850
#	198312
#	205762
#	222405
#
# Disc length: 3149 seconds
#
# Revision: 7
# Processed by: cddbd v1.5.2PL0 Copyright (c) Steve Scherf et al.
# Submitted via: EZCDAudioConverter 2.1.7.1
#
DISCID=ec0c4b11
DTITLE=V/A - White Album Recovered 1/2
DYEAR=2008
DGENRE=MOJO
TTITLE0=Liz Green - Back In The U.S.S.R.
TTITLE1=Lau - Dear Prudence
TTITLE2=Big Linda - Glass Onion
TTITLE3=Gabriella Cilmi - Ob-La-Di, Ob-La-Da
TTITLE4=The Suppliers - Wild Honey Pie
TTITLE5=Dawn Kinnard and Ron Sexsmith with The Suppliers - The Continuing Story 
TTITLE5=Of Bungalow Bill
TTITLE6=Virgin Passages - While My Guitar Gently Weeps
TTITLE7=Aidan Smith - Happiness Is A Warm Gun
TTITLE8=Vashti Bunyan and Max Richter - Martha My Dear
TTITLE9=Phil Campbell - I'm So Tired
TTITLE10=Julie Fowlis - Blackbird
TTITLE11=Pumajaw - Piggies
TTITLE12=Johnny Flynn - Rocky Raccoon
TTITLE13=Field Music - Don't Pass Me By
TTITLE14=Babel - Why Don't We Do It In The Road?
TTITLE15=Joan As Police Woman featuring Violet - I Will
TTITLE16=A Girl Called Eddy - Julia
EXTD=
EXTT0=
EXTT1=
EXTT2=
EXTT3=
EXTT4=
EXTT5=
EXTT6=
EXTT7=
EXTT8=
EXTT9=
EXTT10=
EXTT11=
EXTT12=
EXTT13=
EXTT14=
EXTT15=
EXTT16=
PLAYORDER=
